<svg xmlns="http://www.w3.org/2000/svg" xmlns:xlink="http://www.w3.org/1999/xlink" width="500" zoomAndPan="magnify" viewBox="0 0 375 374.999991" height="500" preserveAspectRatio="xMidYMid meet" version="1.0"><defs><g/><clipPath id="id1"><path d="M 91.074219 141 L 283.824219 141 L 283.824219 247.496094 L 91.074219 247.496094 Z M 91.074219 141 " clip-rule="nonzero"/></clipPath></defs><g fill="#ffffff" fill-opacity="1"><g transform="translate(109.582332, 207.613105)"><g><path d="M 4.917969 -0.886719 L 4.917969 0 L 51.058594 0 C 67.488281 0 82.046875 -6.492188 82.046875 -22.921875 C 82.046875 -38.070312 69.652344 -44.464844 55.78125 -45.253906 C 67.683594 -47.222656 78.40625 -51.84375 78.40625 -64.929688 C 78.40625 -80.765625 63.453125 -84.800781 47.515625 -84.800781 L 4.917969 -84.800781 L 4.917969 -83.914062 L 6.097656 -83.914062 C 9.050781 -83.816406 16.527344 -82.539062 16.527344 -73.488281 L 16.527344 -11.3125 C 16.527344 -2.359375 9.246094 -1.082031 6.199219 -0.886719 Z M 47.515625 -45.449219 L 36.890625 -45.449219 L 36.890625 -83.914062 L 47.515625 -83.914062 C 54.597656 -83.914062 58.335938 -76.832031 58.335938 -64.929688 C 58.335938 -52.925781 54.597656 -45.449219 47.515625 -45.449219 Z M 51.058594 -0.886719 L 46.730469 -0.886719 C 44.171875 -0.984375 36.890625 -2.066406 36.890625 -11.117188 L 36.890625 -44.464844 L 51.058594 -44.464844 C 58.140625 -44.464844 61.976562 -34.921875 61.976562 -22.921875 C 61.976562 -10.917969 58.140625 -0.886719 51.058594 -0.886719 Z M 51.058594 -0.886719 "/></g></g></g><g clip-path="url(#id1)"><path fill="#ffffff" d="M 124.585938 199.707031 C 123.410156 200.050781 122.199219 200.316406 120.964844 200.492188 C 119.75 200.664062 118.511719 200.753906 117.261719 200.753906 C 110.042969 200.753906 103.503906 197.816406 98.773438 193.0625 C 94.039062 188.3125 91.113281 181.75 91.113281 174.5 C 91.113281 167.25 94.039062 160.683594 98.773438 155.933594 C 103.503906 151.183594 110.042969 148.242188 117.261719 148.242188 C 121.277344 148.242188 125.078125 149.152344 128.480469 150.777344 C 132.015625 152.464844 135.109375 154.925781 137.554688 157.9375 C 144.953125 166.941406 150.980469 176.386719 157.003906 185.828125 C 169.414062 205.277344 181.808594 224.699219 206.035156 239.875 C 208.246094 241.085938 210.558594 242.140625 212.953125 243.019531 C 218.5 245.0625 224.492188 246.175781 230.75 246.175781 C 245.03125 246.175781 257.960938 240.363281 267.316406 230.96875 C 276.675781 221.570312 282.464844 208.589844 282.464844 194.25 C 282.464844 179.910156 276.675781 166.929688 267.316406 157.535156 C 258.464844 148.644531 246.417969 142.964844 233.054688 142.378906 C 234.105469 143.140625 234.789062 144.382812 234.789062 145.785156 C 234.789062 148.109375 232.914062 149.988281 230.601562 149.988281 C 228.289062 149.988281 226.414062 148.109375 226.414062 145.785156 C 226.414062 143.765625 227.835938 142.074219 229.730469 141.671875 L 229.71875 141.011719 L 230.746094 141 C 245.390625 141 258.652344 146.960938 268.25 156.597656 C 277.847656 166.234375 283.785156 179.546875 283.785156 194.253906 C 283.785156 208.957031 277.847656 222.269531 268.25 231.90625 C 258.652344 241.542969 245.390625 247.503906 230.746094 247.503906 C 224.335938 247.503906 218.1875 246.359375 212.496094 244.265625 C 206.597656 242.097656 201.1875 238.902344 196.484375 234.902344 C 177.660156 220.652344 166.78125 203.609375 155.890625 186.546875 C 149.886719 177.132812 143.875 167.710938 136.535156 158.777344 L 137.042969 158.359375 L 136.53125 158.777344 C 134.210938 155.917969 131.273438 153.582031 127.917969 151.980469 C 124.691406 150.4375 121.074219 149.574219 117.257812 149.574219 C 110.402344 149.574219 104.195312 152.363281 99.699219 156.875 C 95.207031 161.386719 92.429688 167.621094 92.429688 174.503906 C 92.429688 181.390625 95.207031 187.621094 99.699219 192.132812 C 104.195312 196.644531 110.402344 199.4375 117.257812 199.4375 C 118.460938 199.4375 119.636719 199.351562 120.78125 199.1875 C 121.957031 199.023438 123.105469 198.769531 124.214844 198.445312 L 124.578125 199.714844 Z M 124.585938 199.707031 " fill-opacity="1" fill-rule="nonzero"/></g><g fill="#ffffff" fill-opacity="1"><g transform="translate(188.032756, 231.533385)"><g><path d="M 4.230469 -0.847656 L 4.230469 0 L 43.386719 0 C 49.476562 0 56.15625 -1.097656 60.132812 -3.214844 C 63.769531 -5.160156 66.898438 -8.035156 69.519531 -11.503906 C 74.765625 -18.351562 77.554688 -26.894531 77.554688 -36.453125 C 77.554688 -45.753906 74.765625 -54.636719 69.519531 -61.402344 C 66.8125 -64.867188 63.683594 -67.660156 60.132812 -69.691406 C 56.242188 -71.886719 52.011719 -72.902344 47.617188 -72.902344 L 4.230469 -72.902344 L 4.230469 -72.140625 C 10.488281 -72.140625 14.207031 -68.929688 14.207031 -63.429688 L 14.207031 -9.726562 C 14.207031 -4.398438 11.078125 -0.761719 4.230469 -0.847656 Z M 43.980469 -0.847656 C 38.144531 -0.847656 31.800781 -1.097656 31.714844 -9.640625 L 31.714844 -71.972656 L 45.671875 -71.972656 C 60.046875 -71.972656 60.300781 -45.753906 60.300781 -36.453125 C 60.300781 -26.894531 58.441406 -0.847656 43.980469 -0.847656 Z M 43.980469 -0.847656 "/></g></g></g></svg>